<?xml version="1.0" encoding="UTF-8"?>
<svg version="1.1" viewBox="0 0 2048 2048" width="1280" height="1280" xmlns="http://www.w3.org/2000/svg">
<path transform="translate(282,533)" d="m0 0h819l47 2 29 4 25 6 20 7 20 9 21 11 18 12 19 14 13 11 9 9 2 1v2l4 2 7 8 9 10 12 16 10 15 12 21 9 19 10 28 7 26 3 20 2 23 1 30v558l-2 23-3 15-6 15-8 14-11 14-10 10-15 11-15 6-13 4-20 3-15 1-56 1-802-1-31-2-28-5-25-7-22-8-27-13-18-11-14-10-14-11-11-10-8-7-10-10-7-8-10-12-12-17-11-18-10-18-9-21-8-22-5-21-4-23-2-22-1-21-1-58v-498l1-26 3-19 6-16 7-14 8-10 9-10 7-7 16-11 17-8 13-4 11-1z" fill="#6764DA"/>
<path transform="translate(1792,532)" d="m0 0h24l16 3 15 6 16 10 13 12 10 14 7 14 4 13 2 15v796l-1 20-4 16-8 16-8 12-12 13-13 9-14 6-17 5-11 2h-14l-18-4-12-5-13-8-14-11-13-11-14-12-11-10-8-7-10-9-8-7-14-12-10-9-11-9-12-11-8-7-15-13-11-10-11-9-14-13-8-7-10-9-8-7-14-12-16-15-15-15-11-15-6-13-4-16-1-13v-384l1-17 5-14 6-14 14-17 4-5 8-7 11-10 8-7 14-12 15-13 12-11 11-9 13-12 8-7 12-11 8-7 14-12 10-9 11-9 13-12 11-9 13-12 8-7 10-9 15-13 13-11 16-11 14-7 12-4z" fill="#6764DA"/>
</svg>
